HIERARCHY
ROOT Hips
{
  OFFSET -8.84179 20.0128 0.897337
  CHANNELS 6 Xposition Yposition Zposition Zrotation Xrotation Yrotation
  JOINT Bip01_Pelvis
  {
    OFFSET 0 0 0
    CHANNELS 6 Xposition Yposition Zposition Zrotation Xrotation Yrotation
    JOINT BN_Tail_01
    {
      OFFSET -1.24087 -0.718302 0
      CHANNELS 6 Xposition Yposition Zposition Zrotation Xrotation Yrotation
      JOINT BN_Tail_02
      {
        OFFSET 6.82381 0 0
        CHANNELS 6 Xposition Yposition Zposition Zrotation Xrotation Yrotation
        JOINT BN_Tail_03
        {
          OFFSET 8.76082 0 0
          CHANNELS 6 Xposition Yposition Zposition Zrotation Xrotation Yrotation
          JOINT BN_Tail_04
          {
            OFFSET 7.66999 0 0
            CHANNELS 6 Xposition Yposition Zposition Zrotation Xrotation Yrotation
            End Site
            {
              OFFSET 0 0 0
            }
          }
        }
      }
    }
    JOINT Bip01_Spine
    {
      OFFSET 1.33812 0.096014 0.0297562
      CHANNELS 6 Xposition Yposition Zposition Zrotation Xrotation Yrotation
      JOINT Bip01_R_Thigh
      {
        OFFSET -1.30135 0.103306 -2.49297
        CHANNELS 6 Xposition Yposition Zposition Zrotation Xrotation Yrotation
        JOINT Bip01_R_Calf
        {
          OFFSET 8.39601 0 0
          CHANNELS 6 Xposition Yposition Zposition Zrotation Xrotation Yrotation
          JOINT Bip01_R_HorseLink
          {
            OFFSET 9.35807 0 0
            CHANNELS 6 Xposition Yposition Zposition Zrotation Xrotation Yrotation
            JOINT Bip01_R_Foot
            {
              OFFSET 4.27819 0 0
              CHANNELS 6 Xposition Yposition Zposition Zrotation Xrotation Yrotation
              JOINT Bip01_R_Toe0
              {
                OFFSET 1.32445 2.68719 0
                CHANNELS 6 Xposition Yposition Zposition Zrotation Xrotation Yrotation
                JOINT Bip01_R_Toe0Nub
                {
                  OFFSET 0.282271 0 0
                  CHANNELS 6 Xposition Yposition Zposition Zrotation Xrotation Yrotation
                  End Site
                  {
                    OFFSET 0 0 0
                  }
                }
              }
            }
          }
        }
      }
      JOINT Bip01_L_Thigh
      {
        OFFSET -1.37978 -0.0398788 2.39225
        CHANNELS 6 Xposition Yposition Zposition Zrotation Xrotation Yrotation
        JOINT Bip01_L_Calf
        {
          OFFSET 8.39601 0 0
          CHANNELS 6 Xposition Yposition Zposition Zrotation Xrotation Yrotation
          JOINT Bip01_L_HorseLink
          {
            OFFSET 9.35808 0 0
            CHANNELS 6 Xposition Yposition Zposition Zrotation Xrotation Yrotation
            JOINT Bip01_L_Foot
            {
              OFFSET 4.27819 0 0
              CHANNELS 6 Xposition Yposition Zposition Zrotation Xrotation Yrotation
              JOINT Bip01_L_Toe0
              {
                OFFSET 1.32445 2.68719 0
                CHANNELS 6 Xposition Yposition Zposition Zrotation Xrotation Yrotation
                JOINT Bip01_L_Toe0Nub
                {
                  OFFSET 0.282267 0 0
                  CHANNELS 6 Xposition Yposition Zposition Zrotation Xrotation Yrotation
                  End Site
                  {
                    OFFSET 0 0 0
                  }
                }
              }
            }
          }
        }
      }
      JOINT Bip01_Spine1
      {
        OFFSET 4.77812 -0.00598526 -2.03848e-005
        CHANNELS 6 Xposition Yposition Zposition Zrotation Xrotation Yrotation
        JOINT Bip01_Spine2
        {
          OFFSET 7.52904 -0.00557518 -8.38637e-005
          CHANNELS 6 Xposition Yposition Zposition Zrotation Xrotation Yrotation
          JOINT Bip01_Neck
          {
            OFFSET 8.17986 0.436998 0.000127075
            CHANNELS 6 Xposition Yposition Zposition Zrotation Xrotation Yrotation
            JOINT Bip01_R_Clavicle
            {
              OFFSET -2.1244 -3.91239 -2.44847
              CHANNELS 6 Xposition Yposition Zposition Zrotation Xrotation Yrotation
              JOINT Bip01_R_UpperArm
              {
                OFFSET 6.62478 0 0
                CHANNELS 6 Xposition Yposition Zposition Zrotation Xrotation Yrotation
                JOINT Bip01_R_Forearm
                {
                  OFFSET 7.46098 0 0
                  CHANNELS 6 Xposition Yposition Zposition Zrotation Xrotation Yrotation
                  JOINT Bip01_R_Hand
                  {
                    OFFSET 7.80543 0 0
                    CHANNELS 6 Xposition Yposition Zposition Zrotation Xrotation Yrotation
                    JOINT Bip01_R_Finger0
                    {
                      OFFSET 2.2294 0.674378 0.135623
                      CHANNELS 6 Xposition Yposition Zposition Zrotation Xrotation Yrotation
                      JOINT Bip01_R_Finger0Nub
                      {
                        OFFSET 3.57154 0 0
                        CHANNELS 6 Xposition Yposition Zposition Zrotation Xrotation Yrotation
                        End Site
                        {
                          OFFSET 0 0 0
                        }
                      }
                    }
                  }
                }
              }
            }
            JOINT Bip01_L_Clavicle
            {
              OFFSET -2.28998 -4.09919 1.94072
              CHANNELS 6 Xposition Yposition Zposition Zrotation Xrotation Yrotation
              JOINT Bip01_L_UpperArm
              {
                OFFSET 6.62478 0 0
                CHANNELS 6 Xposition Yposition Zposition Zrotation Xrotation Yrotation
                JOINT Bip01_L_Forearm
                {
                  OFFSET 7.46098 0 0
                  CHANNELS 6 Xposition Yposition Zposition Zrotation Xrotation Yrotation
                  JOINT Bip01_L_Hand
                  {
                    OFFSET 7.80543 0 0
                    CHANNELS 6 Xposition Yposition Zposition Zrotation Xrotation Yrotation
                    JOINT Bip01_L_Finger0
                    {
                      OFFSET 2.2294 0.674378 -0.135623
                      CHANNELS 6 Xposition Yposition Zposition Zrotation Xrotation Yrotation
                      JOINT Bip01_L_Finger0Nub
                      {
                        OFFSET 3.57153 0 0
                        CHANNELS 6 Xposition Yposition Zposition Zrotation Xrotation Yrotation
                        End Site
                        {
                          OFFSET 0 0 0
                        }
                      }
                    }
                  }
                }
              }
            }
            JOINT Bip01_Neck1
            {
              OFFSET 3.78076 -0.00285482 1.52588e-005
              CHANNELS 6 Xposition Yposition Zposition Zrotation Xrotation Yrotation
              JOINT Bip01_Head
              {
                OFFSET 3.62738 0 0
                CHANNELS 6 Xposition Yposition Zposition Zrotation Xrotation Yrotation
                JOINT BN_Beard_L
                {
                  OFFSET 6.36381 2.6665 1.018
                  CHANNELS 6 Xposition Yposition Zposition Zrotation Xrotation Yrotation
                  End Site
                  {
                    OFFSET 0 0 0
                  }
                }
                JOINT BN_Beard_R
                {
                  OFFSET 6.3638 2.6665 -1.01806
                  CHANNELS 6 Xposition Yposition Zposition Zrotation Xrotation Yrotation
                  End Site
                  {
                    OFFSET 0 0 0
                  }
                }
                JOINT BN_Mouth
                {
                  OFFSET 0.165208 0.881832 -2.79663e-005
                  CHANNELS 6 Xposition Yposition Zposition Zrotation Xrotation Yrotation
                  JOINT BN_Thouge_01
                  {
                    OFFSET 4.3022 0.00850105 0
                    CHANNELS 6 Xposition Yposition Zposition Zrotation Xrotation Yrotation
                    JOINT BN_Thouge_02
                    {
                      OFFSET 1.50253 0 0
                      CHANNELS 6 Xposition Yposition Zposition Zrotation Xrotation Yrotation
                      End Site
                      {
                        OFFSET 0 0 0
                      }
                    }
                  }
                }
                JOINT BN_Ear_L
                {
                  OFFSET 1.27954 -1.37165 2.10918
                  CHANNELS 6 Xposition Yposition Zposition Zrotation Xrotation Yrotation
                  End Site
                  {
                    OFFSET 0 0 0
                  }
                }
                JOINT BN_Ear_R
                {
                  OFFSET 1.27953 -1.37164 -2.1093
                  CHANNELS 6 Xposition Yposition Zposition Zrotation Xrotation Yrotation
                  End Site
                  {
                    OFFSET 0 0 0
                  }
                }
                JOINT Bip01_HeadNub
                {
                  OFFSET 7.94507 0 0
                  CHANNELS 6 Xposition Yposition Zposition Zrotation Xrotation Yrotation
                  End Site
                  {
                    OFFSET 0 0 0
                  }
                }
              }
            }
          }
        }
      }
    }
  }
}
MOTION
Frames:	4
Frame Time:	0.0333333
-8.73867 20.9414 0.340406 -90.0015 -89.8609 3.48056 0 0 0 -90.8702 10.1348 -90.8496 -1.24087 -0.718302 2.5034e-006 54.8372 0.248383 -179.109 6.82381 -1.90735e-006 2.5034e-006 -37.2387 -0.096625 -2.72266 8.76082 6.67572e-006 1.19209e-007 -39.0176 0.503389 -8.01739 7.66999 -3.8147e-006 -8.34888e-014 -41.1642 -1.07731 -7.66068 1.33812 0.096014 0.0297562 10.949 0.824081 -2.98999 -1.30135 0.103306 -2.49297 -131.583 -14.708 175.432 8.39601 -4.76837e-007 -2.38419e-007 -67.9924 -4.79616e-006 1.32065e-005 9.35807 -2.86102e-006 -1.06581e-014 72.4353 3.37212e-006 -9.24752e-006 4.27819 -3.55271e-015 8.88179e-016 -94.7381 -5.62723 -11.6437 1.32445 2.68719 3.3717e-010 89.9999 4.96986e-006 -2.36801 0.282271 -1.06582e-014 -1.19209e-007 1.57184e-007 1.49089e-016 -1.98785e-016 -1.37978 -0.0398788 2.39225 -93.4833 4.96913 -179.745 8.39601 0 -8.88178e-016 -41.382 5.40393e-006 7.7849e-006 9.35808 5.32907e-015 1.33227e-015 47.0611 -5.25208e-006 -1.99068e-005 4.27819 2.98023e-006 7.10543e-015 -5.34741 8.64743 -0.324657 1.32445 2.68719 3.15259e-012 87.5602 7.24362e-006 -9.71843e-006 0.282267 4.76837e-007 -2.22045e-016 -180 -1.00179e-005 -9.99999e-007 4.77812 -0.00598526 -2.03848e-005 -0.58881 -0.0492289 3.38296 7.52904 -0.00557518 -8.38637e-005 -3.22426 0.157288 1.65803 8.17986 0.436998 0.000127075 -39.6431 -1.56926 2.02615 -2.1244 -3.91239 -2.44847 -133.408 -69.752 118.31 6.62478 1.42109e-013 -3.8147e-006 58.574 3.20563 -102.816 7.46098 1.59872e-014 5.96047e-008 -45.4881 -3.2919e-006 3.42639e-006 7.80543 -1.31006e-014 2.22045e-016 13.0861 4.72652 -4.14971 2.2294 0.674378 0.135623 -31.035 -5.08809 -1.47217 3.57154 -3.77476e-015 -2.10942e-015 -180 -9.94405e-006 6.97832e-008 -2.28998 -4.09919 1.94072 -147.826 70.9736 -138.444 6.62478 -6.39489e-014 2.86102e-006 82.5218 -18.254 116.653 7.46098 1.77636e-015 8.9407e-008 -35.0871 1.07465e-005 4.26643e-006 7.80543 -1.19209e-007 5.96047e-008 8.85218 9.85121 -4.17845 2.2294 0.674378 -0.135623 -78.8457 4.68968 -5.65163 3.57153 -2.88658e-015 -7.77156e-016 5.76655e-008 -2.11513e-008 2.0839e-008 3.78076 -0.00285482 1.52588e-005 9.09724 -1.67489 -2.16876 3.62738 9.53674e-007 -1.19209e-007 40.6313 1.88418 -3.07833 6.36381 2.6665 1.018 74.1687 -17.7915 -106.36 6.3638 2.6665 -1.01806 -105.922 -17.7743 73.611 0.165208 0.881832 -2.79602e-005 -153.546 1.52588e-005 -180 4.3022 0.00850105 9.3303e-009 15.0149 -2.12005e-005 -1.22515e-005 1.50253 -1.90735e-006 -1.02446e-008 11.687 1.1844e-005 7.77562e-006 1.27954 -1.37165 2.10918 -133.239 -53.1578 -58.9744 1.27953 -1.37164 -2.1093 51.9408 -53.6238 125.063 7.94507 -5.72205e-006 -1.21072e-008 -2.10907e-007 7.28492e-009 -6.95477e-009 
-8.73674 20.9523 0.348232 -90.0008 -89.6589 3.48128 0 0 0 -91.3349 10.0503 -91.2895 -1.24087 -0.718302 2.5034e-006 54.7873 0.248212 -179.056 6.82381 -1.90735e-006 2.5034e-006 -37.0173 -0.100461 -2.75399 8.76082 6.67572e-006 1.19209e-007 -38.1642 0.530973 -8.05872 7.66999 -3.8147e-006 -8.17124e-014 -41.4927 -0.913078 -8.55264 1.33812 0.096014 0.0297562 10.5486 1.41614 -2.77921 -1.30135 0.103306 -2.49297 -133.111 -14.698 175.49 8.39601 -4.76837e-007 -2.38419e-007 -65.1988 2.74245e-006 1.0301e-005 9.35807 -2.86102e-006 -4.88498e-015 66.8184 1.30959e-005 -4.94573e-006 4.27819 -5.77316e-015 1.33227e-015 -86.1635 -6.2985 -11.3459 1.32445 2.68719 4.26727e-010 89.9999 1.18727e-005 -1.84743 0.282271 -5.32908e-015 -1.19209e-007 1.57184e-007 9.93923e-017 -3.97569e-016 -1.37978 -0.0398788 2.39225 -91.4108 4.73844 -179.815 8.39601 3.55271e-015 0 -39.7885 5.00191e-006 8.41025e-006 9.35808 -3.55272e-015 4.44089e-016 45.9696 1.47284e-005 -9.80049e-007 4.27819 2.98023e-006 7.99361e-015 -3.28689 8.42368 -0.558352 1.32445 2.68719 1.50016e-011 87.6675 5.29195e-006 -9.81098e-006 0.282267 4.76837e-007 -1.11022e-015 -180 -1.00179e-005 -9.99999e-007 4.77812 -0.00598526 -2.03848e-005 -0.657115 0.209003 3.47974 7.52904 -0.00557518 -8.38637e-005 -2.28403 -0.171773 1.58045 8.17986 0.436998 0.000127075 -40.1449 -1.44198 2.04029 -2.1244 -3.91239 -2.44847 -133.084 -69.8023 119.734 6.62478 1.40332e-013 -3.8147e-006 59.1873 1.61135 -103.142 7.46098 1.24345e-014 5.96047e-008 -47.7674 -7.60503e-006 7.14237e-006 7.80543 -9.54792e-015 2.66454e-015 14.9604 5.50638 -5.18678 2.2294 0.674378 0.135623 -29.1586 -5.34569 -0.83802 3.57154 2.22045e-016 -6.66134e-016 -180 -9.94405e-006 6.97832e-008 -2.28998 -4.09919 1.94072 -147.129 71.0142 -140.131 6.62478 -7.10543e-014 2.86102e-006 82.4511 -16.7614 116.561 7.46098 1.77636e-015 8.9407e-008 -32.543 6.94974e-006 1.16422e-005 7.80543 -1.19209e-007 5.96047e-008 6.35311 8.75319 -3.89789 2.2294 0.674378 -0.135623 -81.1315 4.68177 -5.5608 3.57153 -2.88658e-015 -1.44329e-015 5.76655e-008 -2.11513e-008 2.0839e-008 3.78076 -0.00285482 1.52588e-005 9.21524 -1.50291 -2.85038 3.62738 9.53674e-007 -1.19209e-007 40.4904 2.14009 -2.28577 6.36381 2.6665 1.018 74.2982 -17.8459 -106.147 6.3638 2.6665 -1.01806 -106.058 -17.7791 73.738 0.165208 0.881832 -2.79598e-005 -153.586 1.52588e-005 -180 4.3022 0.00850105 9.33383e-009 15.0149 -2.12064e-005 -1.22577e-005 1.50253 -1.90735e-006 -1.02446e-008 11.687 1.18464e-005 7.76979e-006 1.27954 -1.37165 2.10918 -133.405 -53.134 -58.884 1.27953 -1.37164 -2.1093 51.0168 -53.9387 124.923 7.94507 -5.72205e-006 -1.21072e-008 -2.10907e-007 7.28492e-009 -6.95477e-009 
-8.73589 20.9517 0.358564 -90.0002 -89.4161 3.48185 0 0 0 -91.8195 9.91829 -91.7382 -1.24087 -0.718302 2.5034e-006 54.6907 0.245126 -179.003 6.82381 -1.90735e-006 2.5034e-006 -36.9206 -0.107272 -2.76803 8.76082 6.67572e-006 1.19209e-007 -36.898 0.549131 -8.0311 7.66999 -3.8147e-006 -8.08242e-014 -41.3506 -0.612837 -9.41691 1.33812 0.096014 0.0297562 10.044 2.04559 -2.58919 -1.30135 0.103306 -2.49297 -134.462 -14.6588 175.566 8.39601 -4.76837e-007 -2.38419e-007 -62.3417 1.35006e-006 1.12179e-005 9.35807 -2.86102e-006 -2.66454e-015 60.964 5.07205e-006 -8.1364e-006 4.27819 -1.22125e-014 2.66454e-015 -77.2445 -6.84033 -11.0055 1.32445 2.68719 2.113e-010 89.9999 1.19312e-005 -1.30453 0.282271 -9.99202e-015 -1.19209e-007 1.57184e-007 -9.93923e-017 -0 -1.37978 -0.0398788 2.39225 -89.4765 4.58147 -179.865 8.39601 0 0 -38.4381 1.75811e-005 -7.27464e-006 9.35808 -5.32907e-015 -4.44089e-016 44.9064 1.36378e-005 -1.75068e-006 4.27819 2.98023e-006 7.99361e-015 -0.977344 8.263 -0.834816 1.32445 2.68719 3.76206e-011 87.8279 -1.69112e-005 -1.06673e-005 0.282267 4.76837e-007 0 -180 -1.00179e-005 -9.99999e-007 4.77812 -0.00598526 -2.03848e-005 -0.757352 0.477773 3.59389 7.52904 -0.00557518 -8.38637e-005 -1.22051 -0.522904 1.49739 8.17986 0.436998 0.000127075 -40.6101 -1.28829 2.01699 -2.1244 -3.91239 -2.44847 -132.898 -69.9405 121.137 6.62478 1.3678e-013 -3.8147e-006 59.9812 -0.084371 -103.38 7.46098 7.10543e-015 5.96047e-008 -50.3072 -7.83658e-006 6.78065e-006 7.80543 -6.55032e-015 1.55431e-015 16.8856 6.39923 -6.33335 2.2294 0.674378 0.135623 -27.8161 -5.6362 -0.0707438 3.57154 -2.66454e-015 1.11022e-016 -180 -9.94405e-006 6.97832e-008 -2.28998 -4.09919 1.94072 -146.331 71.056 -141.225 6.62478 -7.10543e-014 2.86102e-006 82.119 -15.6735 116.331 7.46098 -1.15463e-014 8.9407e-008 -31.1962 1.26125e-005 3.54928e-006 7.80543 -1.19209e-007 5.96047e-008 4.0781 7.30917 -3.45758 2.2294 0.674378 -0.135623 -82.5035 4.84325 -5.18365 3.57153 -1.23235e-014 1.55431e-015 5.76655e-008 -2.11513e-008 2.0839e-008 3.78076 -0.00285482 1.52588e-005 9.33211 -1.2683 -3.69556 3.62738 9.53674e-007 -1.19209e-007 40.1939 2.44342 -1.29906 6.36381 2.6665 1.018 74.4987 -17.9254 -105.82 6.3638 2.6665 -1.01806 -106.266 -17.7851 73.9331 0.165208 0.881832 -2.79595e-005 -153.627 1.52588e-005 -180 4.3022 0.00850105 9.33654e-009 15.0149 -2.12105e-005 -1.22624e-005 1.50253 -1.90735e-006 -1.02446e-008 11.687 1.18485e-005 7.76537e-006 1.27954 -1.37165 2.10918 -133.511 -53.1996 -58.5842 1.27953 -1.37164 -2.1093 49.8921 -54.2622 124.767 7.94507 -5.72205e-006 -1.21072e-008 -2.10907e-007 7.28492e-009 -6.95477e-009 
-8.73602 20.9407 0.371361 -90.0003 -89.1404 3.48179 0 0 0 -92.3331 9.74099 -92.2056 -1.24087 -0.718302 2.5034e-006 54.5555 0.239233 -178.95 6.82381 -1.90735e-006 2.5034e-006 -36.9313 -0.116459 -2.76587 8.76082 6.67572e-006 1.19209e-007 -35.2704 0.559319 -7.9395 7.66999 -3.8147e-006 -7.63833e-014 -40.7935 -0.207753 -10.271 1.33812 0.096014 0.0297562 9.43874 2.71944 -2.397 -1.30135 0.103306 -2.49297 -135.631 -14.585 175.651 8.39601 -4.76837e-007 -2.38419e-007 -59.4152 1.4442e-006 1.14947e-005 9.35807 -2.86102e-006 4.44089e-015 55.0013 6.21667e-006 -7.20555e-006 4.27819 -7.21645e-015 4.44089e-016 -68.2164 -7.27666 -10.6411 1.32445 2.68719 -1.54036e-010 89.9999 1.11257e-005 -0.789336 0.282271 -1.27676e-014 -1.19209e-007 1.57141e-007 0 4.29862e-011 -1.37978 -0.0398788 2.39225 -87.6294 4.48083 -179.903 8.39601 1.77636e-015 -4.44089e-016 -37.2562 9.2832e-007 1.40934e-005 9.35808 0 1.33227e-015 43.8081 -4.22526e-006 -2.00837e-005 4.27819 2.98023e-006 5.77316e-015 1.39711 8.14371 -1.12299 1.32445 2.68719 7.14806e-011 88.0265 9.26425e-006 -9.70612e-006 0.282267 4.76837e-007 -2.22045e-016 -180 -1.00179e-005 -9.99999e-007 4.77812 -0.00598526 -2.03848e-005 -0.880831 0.759257 3.71663 7.52904 -0.00557518 -8.38637e-005 -0.0592801 -0.898595 1.41106 8.17986 0.436998 0.000127075 -41.0438 -1.10893 1.96219 -2.1244 -3.91239 -2.44847 -132.843 -70.1494 122.543 6.62478 1.42109e-013 -3.8147e-006 60.9319 -1.89361 -103.54 7.46098 1.06581e-014 5.96047e-008 -53.1137 -2.21251e-007 4.65942e-007 7.80543 -5.9397e-015 4.44089e-016 18.8907 7.37891 -7.59802 2.2294 0.674378 0.135623 -26.8638 -5.95071 0.817887 3.57154 -7.88259e-015 -1.22125e-015 -180 -9.94405e-006 6.97832e-008 -2.28998 -4.09919 1.94072 -145.437 71.0904 -141.835 6.62478 -7.10543e-014 2.86102e-006 81.5721 -14.8814 116.026 7.46098 -4.44089e-015 8.9407e-008 -30.8471 2.18945e-005 -1.14554e-005 7.80543 -1.19209e-007 5.96047e-008 2.17463 5.91369 -2.98941 2.2294 0.674378 -0.135623 -82.7247 5.18436 -4.73097 3.57153 -1.79856e-014 2.33147e-015 5.76655e-008 -2.11513e-008 2.0839e-008 3.78076 -0.00285482 1.52588e-005 9.44729 -0.984038 -4.66789 3.62738 9.53674e-007 -1.19209e-007 39.7726 2.77031 -0.149166 6.36381 2.6665 1.018 74.7677 -18.0234 -105.384 6.3638 2.6665 -1.01806 -106.543 -17.7906 74.1925 0.165208 0.881832 -2.79593e-005 -153.669 -0.0113983 -179.997 4.3022 0.00850105 9.3384e-009 15.0149 -2.12139e-005 -1.22657e-005 1.50253 -1.90735e-006 -1.02446e-008 11.687 1.18498e-005 7.76223e-006 1.27954 -1.37165 2.10918 -133.584 -53.348 -58.0704 1.27953 -1.37164 -2.1093 48.5891 -54.5993 124.595 7.94507 -5.72205e-006 -1.21072e-008 -2.10907e-007 7.28492e-009 -6.95477e-009 
